<svg version="1.1" xmlns="http://www.w3.org/2000/svg" viewBox="-346.11200256347655 -983.0400268554688 1004.54404296875 1505.2800048828126"><desc>Created with Snap</desc><defs></defs><g><rect x="-346.11200256347655" y="-983.0400268554688" width="1004.54404296875" height="1505.2800048828126" fill="#421e86" style=""></rect><g><g transform="matrix(1.024,0,0,-1.024,0,0)"><path d="M78 -210Q27 -210 -6 -185Q-38 -159 -38 -123Q-38 -93 -23 -76Q-7 -59 21 -59Q43 -59 58 -72Q73 -85 73 -108Q73 -120 70 -127Q67 -134 61 -142Q55 -149 55 -156Q55 -166 64 -172Q73 -177 87 -177Q137 -177 155 -134Q174 -90 174 -6L174 570Q174 599 169 610Q165 622 149 626Q134 631 97 631L97 660L343 660L343 631Q305 631 290 626Q275 622 270 610Q266 599 266 570L266 79Q266 -59 226 -135Q186 -210 78 -210Z" fill="#ffffff" style=""></path></g></g></g></svg>