<svg version="1.1" xmlns="http://www.w3.org/2000/svg" viewBox="-313.34400005340575 -1068.03203125 971.7760375976562 1558.5280517578126"><desc>Created with Snap</desc><defs></defs><g><rect x="-313.34400005340575" y="-1068.03203125" width="971.7760375976562" height="1558.5280517578126" fill="#000000" style=""></rect><g><g transform="matrix(1.024,0,0,-1.024,0,0)"><path d="M-6 -137Q38 -124 73 -91Q108 -57 124 -8Q137 30 141 80Q145 131 145 236L145 680L49 693L49 743L343 743L343 693L252 680L252 275L252 228Q252 149 250 101Q248 53 241 19Q223 -61 162 -113Q101 -165 21 -179L-6 -137Z" fill="#ffffff" style=""></path></g></g></g></svg>